# xmcd
#
# Track frame offsets: 
#        150
#        16036
#        35757
#        50870
#        68679
#        88639
#        108616
#        129342
#        148633
#        170705
#        187753
#
# Disc length: 2693 seconds
#
# Revision: 0
# Processed by: cddbd v1.5.2PL0 Copyright (c) Steve Scherf et al.
# Submitted via: ExactAudioCopyFreeDBPlugin 1.0
#
DISCID=950a830b
DTITLE=Kiefer Sutherland - Down in a hole
DYEAR=2016
DGENRE=Blues
TTITLE0=Can't stay away
TTITLE1=Truth in your eyes
TTITLE2=I'll do anything
TTITLE3=Not enough whiskey
TTITLE4=Going home
TTITLE5=Calling out your name
TTITLE6=My best friend
TTITLE7=Shirley Jean
TTITLE8=All she wrote
TTITLE9=Down in a hole
TTITLE10=Gonna die
EXTD=
EXTT0=
EXTT1=
EXTT2=
EXTT3=
EXTT4=
EXTT5=
EXTT6=
EXTT7=
EXTT8=
EXTT9=
EXTT10=
PLAYORDER=
